<?xml version="1.0" encoding="utf-8"?>
<!-- Generator: Adobe Illustrator 23.0.2, SVG Export Plug-In . SVG Version: 6.00 Build 0)  -->
<svg version="1.1" xmlns="http://www.w3.org/2000/svg" xmlns:xlink="http://www.w3.org/1999/xlink" x="0px" y="0px"
	 viewBox="0 0 1366 768" style="enable-background:new 0 0 1366 768;" xml:space="preserve">
<style type="text/css">
	.st0{display:none;}
	.st1{display:inline;fill:#EA8A68;}
	.st2{fill:#FF9966;}
	.st3{font-family:'ArialRoundedMTBold';}
	.st4{font-size:133.009px;}
	.st5{fill:#99CCCC;}
	.st6{fill:#FFCCFF;}
	.st7{fill:#FFCC66;}
	.st8{fill:#FFFFFF;stroke:#666666;stroke-width:4;stroke-miterlimit:10;}
	.st9{fill:#FF6666;}
	.st10{fill:#FFBDBD;}
	.st11{fill:#666666;}
	.st12{font-size:20.9878px;}
	.st13{fill:#DDE9ED;stroke:#666666;stroke-width:10;stroke-miterlimit:10;}
	.st14{fill:#FFFFFF;}
	.st15{display:inline;fill:#FFFFFF;}
</style>
<g id="Layer_1" class="st0">
	<rect class="st1" width="1366" height="768"/>
</g>
<g id="Layer_4">
	<text transform="matrix(1 0 0 1 503.9995 426.9434)"><tspan x="0" y="0" class="st2 st3 st4">d</tspan><tspan x="83.1" y="0" class="st5 st3 st4">  </tspan><tspan x="149.6" y="0" class="st6 st3 st4">r</tspan><tspan x="207.9" y="0" class="st7 st3 st4">m</tspan></text>
	<g>
		<path class="st8" d="M880.4,329h-14.9h0h-14.9c-4.7,0-8.6,3.8-8.6,8.6v2.6c0,3.5,2.1,6.6,5.2,7.9v65.8c0,10.1,8.2,18.3,18.3,18.3
			h0c10.1,0,18.3-8.2,18.3-18.3V348c3-1.3,5.2-4.4,5.2-7.9v-2.6C889,332.8,885.2,329,880.4,329z"/>
		<path class="st9" d="M852,381.3v31.9c0,7.7,6,14,13.5,14h0c7.4,0,13.5-6.3,13.5-14v-31.9H852z"/>
		<circle class="st10" cx="864.4" cy="396.6" r="4.4"/>
		<path class="st10" d="M865.8,382c0.1,1.6,1.4,2.9,3.1,2.9s3-1.3,3.1-2.9H865.8z"/>
	</g>
	<circle class="st10" cx="859" cy="370" r="4"/>
	<g>
		<circle class="st10" cx="875.5" cy="313.5" r="10.5"/>
		<text transform="matrix(1 0 0 1 851 320.4419)" class="st11 st3 st12">lab</text>
	</g>
	<g>
		<circle class="st13" cx="618.6" cy="394.5" r="31.5"/>
		<g>
			<path class="st11" d="M635.8,417.4l29.1,19.4c3.9,2.6,9.2,1.5,11.8-2.4l1.1-1.7c2.6-3.9,1.5-9.2-2.4-11.8l-29.1-19.4
				c-0.9,3-2.2,6-4,8.7C640.5,413.1,638.3,415.5,635.8,417.4z"/>
		</g>
		<path class="st14" d="M596.6,396.8L596.6,396.8c-1.3-6.1,2.6-12.1,8.7-13.4l0.7-0.2c6.1-1.3,12.1,2.6,13.4,8.7v0
			c1.3,6.1-2.6,12.1-8.7,13.4l-0.7,0.2C603.9,406.8,597.9,402.9,596.6,396.8z"/>
	</g>
</g>
<g id="Layer_3" class="st0">
	<path class="st15" d="M453.6,357.4H273.4c-26.2,0-47.4-21.2-47.4-47.4v0c0-26.2,21.2-47.4,47.4-47.4h180.3
		c26.2,0,47.4,21.2,47.4,47.4v0C501,336.2,479.8,357.4,453.6,357.4z"/>
	<path class="st15" d="M517.6,298.4H381.4c-26.2,0-47.4-21.2-47.4-47.4v0c0-26.2,21.2-47.4,47.4-47.4h136.3
		c26.2,0,47.4,21.2,47.4,47.4v0C565,277.2,543.8,298.4,517.6,298.4z"/>
	<path class="st15" d="M1139.6,555.4H952.4c-26.2,0-47.4-21.2-47.4-47.4v0c0-26.2,21.2-47.4,47.4-47.4h187.3
		c26.2,0,47.4,21.2,47.4,47.4v0C1187,534.2,1165.8,555.4,1139.6,555.4z"/>
	<path class="st15" d="M1101.6,508.4h-65.3c-26.2,0-47.4-21.2-47.4-47.4v0c0-26.2,21.2-47.4,47.4-47.4h65.3
		c26.2,0,47.4,21.2,47.4,47.4v0C1149,487.2,1127.8,508.4,1101.6,508.4z"/>
</g>
<g id="Layer_2" class="st0">
	<path class="st15" d="M452.2,367.1H330.1c-22,0-39.8-17.8-39.8-39.8v0c0-22,17.8-39.8,39.8-39.8h122.1c22,0,39.8,17.8,39.8,39.8v0
		C492,349.3,474.2,367.1,452.2,367.1z"/>
	<path class="st15" d="M390,319.2H252.8c-22,0-39.8-17.8-39.8-39.8v0c0-22,17.8-39.8,39.8-39.8H390c22,0,39.8,17.8,39.8,39.8v0
		C429.8,301.4,412,319.2,390,319.2z"/>
	<path class="st15" d="M1137.2,632.4H990.3c-20.9,0-37.8-16.9-37.8-37.8v0c0-20.9,16.9-37.8,37.8-37.8h146.9
		c20.9,0,37.8,16.9,37.8,37.8v0C1175,615.5,1158.1,632.4,1137.2,632.4z"/>
	<path class="st15" d="M1116.2,594.5h-52.6c-20.9,0-37.8-16.9-37.8-37.8v0c0-20.9,16.9-37.8,37.8-37.8h52.6
		c20.9,0,37.8,16.9,37.8,37.8v0C1154,577.6,1137.1,594.5,1116.2,594.5z"/>
</g>
</svg>
